<?xml version="1.0" encoding="UTF-8" standalone="no"?>
<svg
   xmlns:dc="http://purl.org/dc/elements/1.1/"
   xmlns:cc="http://creativecommons.org/ns#"
   xmlns:rdf="http://www.w3.org/1999/02/22-rdf-syntax-ns#"
   xmlns:svg="http://www.w3.org/2000/svg"
   xmlns="http://www.w3.org/2000/svg"
   xmlns:sodipodi="http://sodipodi.sourceforge.net/DTD/sodipodi-0.dtd"
   xmlns:inkscape="http://www.inkscape.org/namespaces/inkscape"
   width="500.000000px"
   height="500.000000px"
   version="1.1"
   viewBox="353.414734 270.109009 250.000000 250.000000"
   id="svg115"
   sodipodi:docname="Logo.svg"
   inkscape:version="1.0 (4035a4fb49, 2020-05-01)">
  <metadata
     id="metadata121">
    <rdf:RDF>
      <cc:Work
         rdf:about="">
        <dc:format>image/svg+xml</dc:format>
        <dc:type
           rdf:resource="http://purl.org/dc/dcmitype/StillImage" />
        <dc:title>Horizontal Band</dc:title>
      </cc:Work>
    </rdf:RDF>
  </metadata>
  <defs
     id="defs119" />
  <sodipodi:namedview
     inkscape:document-rotation="0"
     pagecolor="#ffffff"
     bordercolor="#666666"
     borderopacity="1"
     objecttolerance="10"
     gridtolerance="10"
     guidetolerance="10"
     inkscape:pageopacity="0"
     inkscape:pageshadow="2"
     inkscape:window-width="1920"
     inkscape:window-height="1001"
     id="namedview117"
     showgrid="false"
     inkscape:zoom="1.039447"
     inkscape:cx="17.06016"
     inkscape:cy="176.23066"
     inkscape:window-x="-9"
     inkscape:window-y="-9"
     inkscape:window-maximized="1"
     inkscape:current-layer="layer2" />
  <!--
	Exported with Concepts: Smarter Sketching
	Version: 830 on iOS 13.3
	https://concepts.app/
	-->
  <title
     id="title2">Horizontal Band</title>
  <desc
     id="desc4">Drawing exported from Concepts: Smarter Sketching</desc>
  <g
     id="New_Layer_3"
     opacity="1"
     transform="rotate(90,479.969,397.974)" />
  <g
     inkscape:groupmode="layer"
     id="layer2"
     inkscape:label="Layer 2"
     style="display:inline">
    <path
       id="STROKE_e91b608b-1630-4d6a-91cd-0aa7e2c28d4a"
       opacity="1"
       fill="none"
       stroke="#000000"
       stroke-width="1.579"
       stroke-opacity="1"
       stroke-linecap="round"
       stroke-linejoin="round"
       d="m 434.46498,431.192 q 5.38,-6.655 7.821,-9.716 2.442,-3.06 3.297,-4.117 0.856,-1.058 1.581,-1.938 0.726,-0.88 1.374,-1.66 0.648,-0.781 1.402,-1.664 0.753,-0.883 1.781,-2.053 1.028,-1.17 1.065,-1.207 0.038,-0.037 0.336,-0.358 0.297,-0.32 0.616,-0.678 0.319,-0.358 0.407,-0.46 0.088,-0.102 1.612,-1.781" />
    <path
       id="STROKE_bfa04740-6a4a-4895-949e-cc6188517efb"
       opacity="1"
       fill="none"
       stroke="#000000"
       stroke-width="1.579"
       stroke-opacity="1"
       stroke-linecap="round"
       stroke-linejoin="round"
       d="m 455.75698,405.56 q 0.131,0.355 0.194,0.645 0.063,0.29 0.5,1.842 0.437,1.552 0.869,3.059 0.431,1.506 0.635,2.193 0.204,0.686 0.426,1.407 0.222,0.721 0.429,1.406 0.208,0.685 0.476,1.526 0.267,0.84 0.434,1.319 0.167,0.48 0.348,1.03 0.181,0.55 0.459,1.379 0.278,0.83 0.526,1.601 0.247,0.771 0.439,1.326" />
    <path
       id="STROKE_0550d67a-c53e-424f-af66-6863fe5ab19d"
       opacity="1"
       fill="none"
       stroke="#000000"
       stroke-width="1.579"
       stroke-opacity="1"
       stroke-linecap="round"
       stroke-linejoin="round"
       d="m 461.49198,424.293 q 0.186,-0.138 1.241,-0.826 1.055,-0.687 1.731,-1.127 0.675,-0.44 1.038,-0.678 0.363,-0.237 2.046,-1.313 1.684,-1.075 2.271,-1.448 0.588,-0.374 1.085,-0.685 0.496,-0.31 0.936,-0.567 0.441,-0.258 1.305,-0.774 0.864,-0.516 1.135,-0.674 0.272,-0.159 0.654,-0.389 0.383,-0.231 1.242,-0.727 0.859,-0.496 1.444,-0.838 0.585,-0.342 1.172,-0.682 0.588,-0.34 1.576,-0.914 0.989,-0.573 1.334,-0.779 0.345,-0.206 0.846,-0.495" />
    <path
       id="STROKE_c67bb927-1a29-4e79-b1cb-be688c0c24c4"
       opacity="1"
       fill="none"
       stroke="#000000"
       stroke-width="1.579"
       stroke-opacity="1"
       stroke-linecap="round"
       stroke-linejoin="round"
       d="m 478.22998,431.253 q 0.883,-3.26 1.039,-3.84 0.157,-0.58 0.396,-1.499 0.239,-0.92 0.858,-3.648 0.619,-2.729 0.749,-3.346 0.13,-0.617 0.225,-1.164 0.095,-0.547 0.208,-1.166 0.113,-0.618 0.203,-1.119 0.09,-0.501 0.192,-1.119 0.102,-0.617 0.448,-2.975" />
    <path
       id="STROKE_f714ac28-59a3-4999-9730-be4d6cfe761e"
       opacity="1"
       fill="none"
       stroke="#000000"
       stroke-width="1.579"
       stroke-opacity="1"
       stroke-linecap="round"
       stroke-linejoin="round"
       d="m 461.49198,424.293 q 0.456,0.188 0.673,0.301 0.217,0.114 0.615,0.265 0.397,0.151 0.69,0.275 0.292,0.123 0.592,0.257 0.3,0.133 0.638,0.273 0.338,0.14 0.632,0.266 0.294,0.126 0.843,0.342 0.548,0.216 0.925,0.374 0.377,0.158 0.717,0.289 0.339,0.13 0.616,0.23 0.276,0.1 0.453,0.167 0.177,0.067 0.296,0.118 0.119,0.051 0.394,0.164 0.275,0.113 0.668,0.253 0.393,0.14 0.628,0.232 0.236,0.092 0.449,0.163 0.213,0.071 0.687,0.254 0.473,0.183 0.741,0.292 0.268,0.109 0.393,0.154 0.126,0.045 0.397,0.151 0.271,0.106 0.833,0.329 0.562,0.224 1.428,0.546 0.731,0.251 0.821,0.287 0.09,0.036 0.422,0.155 0.333,0.118 1.72,0.642" />
    <path
       id="STROKE_2b987755-8778-4540-bdc9-60aa7ed21564"
       opacity="1"
       fill="none"
       stroke="#000000"
       stroke-width="1.579"
       stroke-opacity="1"
       stroke-linecap="round"
       stroke-linejoin="round"
       d="m 478.21298,445.445 q -0.006,-0.351 10e-4,-0.668 0.008,-0.317 0.037,-1.509 0.03,-1.193 0.044,-3.432 0.015,-2.239 0.018,-2.954 0.002,-0.715 -0.01,-2.081 -0.011,-1.366 -0.028,-2.074 -0.016,-0.709 -0.045,-1.474" />
    <path
       id="STROKE_966622ce-dccc-4d33-a076-7c5ff2dc4e43"
       opacity="1"
       fill="none"
       stroke="#000000"
       stroke-width="1.579"
       stroke-opacity="1"
       stroke-linecap="round"
       stroke-linejoin="round"
       d="m 463.08998,444.795 q -0.007,-0.632 -0.03,-2.073 -0.024,-1.442 -0.061,-3.447 -0.037,-2.006 -0.067,-2.909 -0.03,-0.904 -0.09,-1.703 -0.06,-0.798 -0.12,-1.481 -0.06,-0.683 -0.14,-1.471 -0.079,-0.788 -0.233,-2.008 -0.153,-1.219 -0.187,-1.413 -0.034,-0.194 -0.075,-0.501 -0.041,-0.307 -0.07,-0.476 -0.029,-0.169 -0.087,-0.466 -0.059,-0.298 -0.174,-0.995 l -0.264,-1.559" />
    <path
       id="STROKE_4d89050b-434c-461e-b15c-1c8cea85cc78"
       opacity="1"
       fill="none"
       stroke="#000000"
       stroke-width="1.579"
       stroke-opacity="1"
       stroke-linecap="round"
       stroke-linejoin="round"
       d="m 434.46498,431.192 0.419,-0.194 q 0.765,-0.298 1.929,-0.734 1.164,-0.436 3.184,-1.124 2.02,-0.687 3.02,-0.997 1.001,-0.31 1.743,-0.509 0.741,-0.199 1.512,-0.4 0.771,-0.201 2.011,-0.476 1.24,-0.276 2.231,-0.48 0.99,-0.204 2.315,-0.453 1.325,-0.248 1.876,-0.35 0.55,-0.102 0.963,-0.17 0.412,-0.069 1.225,-0.215 0.813,-0.147 1.527,-0.263 0.715,-0.115 0.837,-0.127 l 2.235,-0.407" />
    <path
       id="STROKE_d0cb8376-a042-4690-a51d-c236ff99f9fd"
       opacity="1"
       fill="none"
       stroke="#000000"
       stroke-width="1.579"
       stroke-opacity="1"
       stroke-linecap="round"
       stroke-linejoin="round"
       d="m 478.22998,431.253 0.273,-0.024 q 0.956,-0.032 1.256,-0.037 0.301,-0.005 1.162,-0.033 0.861,-0.029 1.034,-0.036 0.174,-0.008 0.713,-0.037 0.54,-0.03 1.518,-0.054 0.978,-0.024 1.716,-0.035 0.738,-0.011 1.208,-0.02 0.469,-0.008 0.92,-0.004 0.451,0.005 0.998,0.012 0.546,0.007 1.267,0.014 0.721,0.007 1.113,0.007 0.391,-10e-4 0.955,-0.009 l 0.712,0.016 1.085,-0.02" />
    <path
       id="STROKE_fa0c81f2-303a-4336-8c31-036c74226af4"
       opacity="1"
       fill="none"
       stroke="#000000"
       stroke-width="1.579"
       stroke-opacity="1"
       stroke-linecap="round"
       stroke-linejoin="round"
       d="m 494.15998,430.993 0.082,-0.382 q 0.056,-0.225 0.282,-1.089 0.225,-0.863 0.569,-2.099 0.344,-1.236 0.72,-2.572 0.376,-1.336 0.554,-1.974 0.178,-0.639 0.537,-1.897 0.359,-1.259 0.542,-1.904 0.183,-0.645 0.288,-0.991 0.105,-0.345 0.35,-1.167 0.245,-0.823 0.32,-1.105 0.076,-0.282 0.241,-0.831 0.165,-0.549 0.433,-1.516 0.268,-0.967 0.601,-2.07" />
    <path
       id="STROKE_d5ec155f-8de4-4ef7-85d1-e651d4035a32"
       opacity="1"
       fill="none"
       stroke="#000000"
       stroke-width="1.579"
       stroke-opacity="1"
       stroke-linecap="round"
       stroke-linejoin="round"
       d="m 482.54798,411.377 q 0.711,-0.024 1.315,-0.032 0.603,-0.008 1.317,-0.015 0.714,-0.006 1.485,-0.029 0.772,-0.023 1.372,-0.032 0.601,-0.009 1.06,-0.005 0.459,0.004 1.2,0.008 0.742,0.005 1.455,0.007 0.714,0.002 1.426,0.01 0.712,0.008 1.326,0.013 0.614,0.005 1.18,0.013 0.565,0.008 2.842,0.035 l 1.153,0.046" />
    <path
       id="STROKE_66aeab54-956e-47e6-bb6f-8b971f887f96"
       opacity="1"
       fill="none"
       stroke="#000000"
       stroke-width="1.579"
       stroke-opacity="1"
       stroke-linecap="round"
       stroke-linejoin="round"
       d="m 482.54798,411.377 0.046,-0.999 q -0.043,-0.582 -0.058,-1 -0.006,-0.599 -0.029,-2.5 -0.023,-1.901 -0.051,-3.004 -0.028,-1.104 -0.068,-2.254 -0.039,-1.152 -0.117,-2.453 -0.077,-1.301 -0.177,-2.483 -0.101,-1.183 -0.183,-2.004 -0.083,-0.822 -0.132,-1.233 -0.049,-0.411 -0.074,-0.56 -0.025,-0.148 -0.107,-0.747 -0.082,-0.599 -0.213,-1.58" />
    <path
       id="STROKE_3da7ad74-a6bc-4651-abb6-643fab21369b"
       opacity="1"
       fill="none"
       stroke="#000000"
       stroke-width="1.579"
       stroke-opacity="1"
       stroke-linecap="round"
       stroke-linejoin="round"
       d="m 481.38498,390.56 q 0.267,0.275 0.508,0.572 0.241,0.298 1.04,1.209 0.798,0.912 1.264,1.438 0.465,0.527 0.735,0.835 0.269,0.308 0.626,0.721 0.357,0.413 1.139,1.329 0.782,0.916 1.232,1.423 0.45,0.507 0.83,0.95 0.379,0.443 0.886,1.015 0.507,0.572 0.849,0.958 0.342,0.385 0.455,0.506 0.114,0.121 0.676,0.753 0.563,0.633 0.903,1.018 0.341,0.385 0.74,0.824 0.399,0.439 0.817,0.913 0.418,0.474 1.036,1.166 0.618,0.691 1.024,1.146 0.406,0.454 0.868,0.981 0.462,0.527 0.656,0.747 0.194,0.221 0.489,0.553 0.295,0.332 0.573,0.655 l 0.948,1.124" />
    <path
       id="STROKE_cf52a121-f7ed-49d5-b8ab-bfcf5e0bfc68"
       opacity="1"
       fill="none"
       stroke="#000000"
       stroke-width="1.579"
       stroke-opacity="1"
       stroke-linecap="round"
       stroke-linejoin="round"
       d="m 455.75698,405.56 q 0.39,-0.34 1.829,-1.447 1.438,-1.108 2.237,-1.69 0.8,-0.583 1.468,-1.054 0.669,-0.471 2.607,-1.711 1.938,-1.24 2.48,-1.542 0.541,-0.301 1.057,-0.595 0.515,-0.293 2.156,-1.151 1.641,-0.858 2.029,-1.055 0.387,-0.197 1.536,-0.755 1.149,-0.558 1.809,-0.862 0.66,-0.303 1.252,-0.589 0.592,-0.286 1.092,-0.536 0.5,-0.251 0.743,-0.37 0.242,-0.118 1.076,-0.536 0.834,-0.417 1.203,-0.591 0.369,-0.174 1.054,-0.516" />
    <path
       id="STROKE_1a30208f-3d85-44cb-a835-c969f1a36fd5"
       opacity="1"
       fill="none"
       stroke="#000000"
       stroke-width="1.579"
       stroke-opacity="1"
       stroke-linecap="round"
       stroke-linejoin="round"
       d="m 455.75698,405.56 0.786,0.014 q 0.403,0.05 2.582,0.221 2.179,0.172 3.192,0.288 1.013,0.115 2.288,0.282 1.275,0.167 1.95,0.273 0.676,0.105 0.947,0.156 0.272,0.051 1.308,0.255 1.037,0.205 1.494,0.301 0.456,0.097 1.003,0.228 0.547,0.131 1.493,0.37 0.947,0.238 1.539,0.414 0.593,0.176 0.642,0.193 0.05,0.017 1.11,0.358 1.06,0.341 1.543,0.505 0.483,0.165 1.103,0.396 0.62,0.231 0.991,0.372 0.371,0.141 1.2,0.489 l 1.62,0.702" />
    <path
       id="STROKE_c6e5ab9b-a33f-444a-b813-4c7a8e4ff79d"
       opacity="1"
       fill="none"
       stroke="#000000"
       stroke-width="1.579"
       stroke-opacity="1"
       stroke-linecap="round"
       stroke-linejoin="round"
       d="m 429.27998,396.512 q 0.305,0.074 0.595,0.156 0.29,0.082 0.656,0.154 0.366,0.073 0.664,0.121 0.298,0.047 1.237,0.227 0.939,0.179 1.999,0.405 1.059,0.226 2.736,0.613 1.677,0.386 2.567,0.607 0.889,0.222 1.439,0.363 0.549,0.141 2.258,0.655 1.709,0.515 3.09,1.01 1.381,0.495 2.041,0.771 0.66,0.275 1.041,0.451 0.382,0.175 0.873,0.407 0.491,0.232 1.056,0.527 0.565,0.295 0.778,0.41 0.213,0.115 0.419,0.236 0.206,0.122 0.41,0.23 0.204,0.108 0.9,0.537 l 0.123,0.062 1.595,1.106" />
    <path
       id="STROKE_d24c7344-bf21-4354-89ee-158faa45b286"
       opacity="1"
       fill="none"
       stroke="#000000"
       stroke-width="1.579"
       stroke-opacity="1"
       stroke-linecap="round"
       stroke-linejoin="round"
       d="m 455.75698,405.56 -0.094,-0.524 q -0.111,-0.478 -0.569,-2.223 -0.459,-1.745 -0.635,-2.375 -0.176,-0.63 -0.548,-1.828 -0.372,-1.197 -0.595,-1.835 -0.223,-0.638 -0.401,-1.209 -0.178,-0.571 -0.219,-0.676 -0.04,-0.106 -0.254,-0.802" />
    <path
       id="STROKE_3889e79a-61a6-4943-b4ef-6d6d36a1fc5b"
       opacity="1"
       fill="none"
       stroke="#000000"
       stroke-width="1.579"
       stroke-opacity="1"
       stroke-linecap="round"
       stroke-linejoin="round"
       d="m 434.46498,431.192 12.873,22.768" />
    <path
       id="STROKE_775f4bb0-c177-426f-9e1c-ad7293059231"
       opacity="1"
       fill="none"
       stroke="#000000"
       stroke-width="1.579"
       stroke-opacity="1"
       stroke-linecap="round"
       stroke-linejoin="round"
       d="m 447.33798,453.96 10.174,1.718" />
    <path
       id="STROKE_5ae80f3b-5ade-4720-9cbd-6cef26434ea5"
       opacity="1"
       fill="none"
       stroke="#000000"
       stroke-width="1.579"
       stroke-opacity="1"
       stroke-linecap="round"
       stroke-linejoin="round"
       d="m 455.38098,468.394 -7.65,-14.787" />
    <path
       id="STROKE_ba01955c-d22d-46f7-aba3-bfd1ebc7d587"
       opacity="1"
       fill="none"
       stroke="#000000"
       stroke-width="1.579"
       stroke-opacity="1"
       stroke-linecap="round"
       stroke-linejoin="round"
       d="m 429.27998,396.512 5.362,34.583" />
    <path
       id="STROKE_3629b911-d322-41a5-9655-75b635b91071"
       opacity="1"
       fill="none"
       stroke="#000000"
       stroke-width="1.579"
       stroke-opacity="1"
       stroke-linecap="round"
       stroke-linejoin="round"
       d="m 413.17198,409.191 21.648,21.449" />
    <path
       id="STROKE_fd70a595-db7b-4dc3-97c0-63767f61a9c1"
       opacity="1"
       fill="none"
       stroke="#000000"
       stroke-width="1.579"
       stroke-opacity="1"
       stroke-linecap="round"
       stroke-linejoin="round"
       d="m 409.97898,415.714 7.333,8.361" />
    <path
       id="STROKE_33182756-f3f9-4e98-a94b-9a53a51a5ee2"
       opacity="1"
       fill="none"
       stroke="#000000"
       stroke-width="1.579"
       stroke-opacity="1"
       stroke-linecap="round"
       stroke-linejoin="round"
       d="m 417.18898,413.171 0.319,11.122" />
    <path
       id="STROKE_ffa78a9f-6dd5-41e9-b628-c645a4ea935b"
       opacity="1"
       fill="none"
       stroke="#000000"
       stroke-width="1.579"
       stroke-opacity="1"
       stroke-linecap="round"
       stroke-linejoin="round"
       d="m 434.81998,430.64 -17.312,-6.17" />
    <path
       id="STROKE_54faf228-8f63-4698-9095-1a5df397742f"
       opacity="1"
       fill="none"
       stroke="#000000"
       stroke-width="1.579"
       stroke-opacity="1"
       stroke-linecap="round"
       stroke-linejoin="round"
       d="m 434.64198,431.095 -4.888,26.612" />
    <path
       id="STROKE_c9a03fa1-7533-410f-915f-66c7ee75ab78"
       opacity="1"
       fill="none"
       stroke="#000000"
       stroke-width="1.579"
       stroke-opacity="1"
       stroke-linecap="round"
       stroke-linejoin="round"
       d="m 423.28398,443.611 11.181,-12.419" />
    <path
       id="STROKE_8e51b539-6b51-4c63-a7f9-a6e6230e0259"
       opacity="1"
       fill="none"
       stroke="#000000"
       stroke-width="1.579"
       stroke-opacity="1"
       stroke-linecap="round"
       stroke-linejoin="round"
       d="m 423.28398,443.611 6.47,14.096" />
    <path
       id="STROKE_d3d1e8c4-2adc-407f-9da7-1f0e2de715f2"
       opacity="1"
       fill="none"
       stroke="#000000"
       stroke-width="1.579"
       stroke-opacity="1"
       stroke-linecap="round"
       stroke-linejoin="round"
       d="m 429.75398,457.707 17.8,-3.311" />
    <path
       id="STROKE_bb12e77c-4785-418d-b5f3-660e63b7dc8c"
       opacity="1"
       fill="none"
       stroke="#000000"
       stroke-width="1.579"
       stroke-opacity="1"
       stroke-linecap="round"
       stroke-linejoin="round"
       d="m 430.20598,478.232 17.034,-23.046" />
    <path
       id="STROKE_89b4bdcb-d43b-43da-b609-34c4e84458d8"
       opacity="1"
       fill="none"
       stroke="#000000"
       stroke-width="1.579"
       stroke-opacity="1"
       stroke-linecap="round"
       stroke-linejoin="round"
       d="m 430.20598,478.232 -0.452,-20.525" />
    <path
       id="STROKE_432ef5d4-8ac3-4cd6-9cd8-a96dfebd22ea"
       opacity="1"
       fill="none"
       stroke="#000000"
       stroke-width="1.579"
       stroke-opacity="1"
       stroke-linecap="round"
       stroke-linejoin="round"
       d="M 400.14406,433.18326 417.50798,424.47"
       sodipodi:nodetypes="cc" />
    <path
       id="STROKE_59895d0d-5f78-4114-a086-decef6db7c96"
       opacity="1"
       fill="none"
       stroke="#000000"
       stroke-width="1.579"
       stroke-opacity="1"
       stroke-linecap="round"
       stroke-linejoin="round"
       d="m 423.28398,443.611 -5.38,-17.702" />
    <path
       id="STROKE_2d3dac13-2bfc-4e75-8638-dfb9dd8acd7f"
       opacity="1"
       fill="none"
       stroke="#000000"
       stroke-width="1.579"
       stroke-opacity="1"
       stroke-linecap="round"
       stroke-linejoin="round"
       d="M 412.85165,440.77013 417.90398,425.909"
       sodipodi:nodetypes="cc" />
    <circle
       transform="rotate(90)"
       id="STROKE_738e9c0b-83bc-4466-8c01-66f3f857df57"
       opacity="1"
       fill="#000000"
       stroke="#000000"
       stroke-width="0.1"
       stroke-opacity="1"
       fill-opacity="1"
       cx="448.06903"
       cy="-419.914"
       r="0.78899997" />
    <path
       id="STROKE_0deab339-e3d8-4cb6-ac08-5022f7259dc0"
       opacity="1"
       fill="none"
       stroke="#000000"
       stroke-width="1.579"
       stroke-opacity="1"
       stroke-linecap="round"
       stroke-linejoin="round"
       d="m 417.14809,451.67669 6.13589,-8.06569"
       sodipodi:nodetypes="cc" />
    <path
       id="STROKE_bc68eefb-22af-4097-9def-7adf3478aebd"
       opacity="1"
       fill="none"
       stroke="#000000"
       stroke-width="1.579"
       stroke-opacity="1"
       stroke-linecap="round"
       stroke-linejoin="round"
       d="m 420.27111,464.43659 9.48287,-6.72959"
       sodipodi:nodetypes="cc" />
    <path
       id="STROKE_dc3103e8-18b5-497b-8ac8-7f2adacf5576"
       opacity="1"
       fill="none"
       stroke="#000000"
       stroke-width="1.579"
       stroke-opacity="1"
       stroke-linecap="round"
       stroke-linejoin="round"
       d="m 420.58598,474.643 9.62,3.589" />
    <path
       id="STROKE_a974ce2d-9dc7-4008-af99-304731d3fab6"
       opacity="1"
       fill="none"
       stroke="#000000"
       stroke-width="1.579"
       stroke-opacity="1"
       stroke-linecap="round"
       stroke-linejoin="round"
       d="m 436.51598,485.27 -5.759,-6.643" />
    <path
       id="STROKE_7ec9a620-8eef-46e3-bad2-935baa7846aa"
       opacity="1"
       fill="none"
       stroke="#000000"
       stroke-width="1.579"
       stroke-opacity="1"
       stroke-linecap="round"
       stroke-linejoin="round"
       d="m 421.64698,496.45 8.281,-17.113" />
    <path
       id="STROKE_47d81889-d2a6-4276-b023-832a0774a86b"
       opacity="1"
       fill="none"
       stroke="#000000"
       stroke-width="1.579"
       stroke-opacity="1"
       stroke-linecap="round"
       stroke-linejoin="round"
       d="m 499.67898,411.396 -1.115,-26.282" />
    <path
       id="STROKE_d477378c-c643-4c92-8a5f-23f8d0ae40d2"
       opacity="1"
       fill="none"
       stroke="#000000"
       stroke-width="1.579"
       stroke-opacity="1"
       stroke-linecap="round"
       stroke-linejoin="round"
       d="m 498.56398,385.114 17.101,12.406" />
    <path
       id="STROKE_d49037c4-8080-4e12-bf64-241059c2a029"
       opacity="1"
       fill="none"
       stroke="#000000"
       stroke-width="1.579"
       stroke-opacity="1"
       stroke-linecap="round"
       stroke-linejoin="round"
       d="m 499.67898,411.396 16.04,-12.803" />
    <path
       id="STROKE_72eb0aa9-68f8-41b8-aabe-343bfb873a1d"
       opacity="1"
       fill="none"
       stroke="#000000"
       stroke-width="1.864"
       stroke-opacity="1"
       stroke-linecap="round"
       stroke-linejoin="round"
       d="m 530.00098,414.911 13.355,-12.1" />
    <path
       id="STROKE_a10b81bd-f15b-46f3-8c41-bd7929e7944d"
       opacity="1"
       fill="none"
       stroke="#000000"
       stroke-width="1.579"
       stroke-opacity="1"
       stroke-linecap="round"
       stroke-linejoin="round"
       d="m 515.71898,398.593 14.007,16.355" />
    <path
       id="STROKE_6fa2afab-3b8f-4dbf-9191-c560f52f1ee7"
       opacity="1"
       fill="none"
       stroke="#000000"
       stroke-width="1.534"
       stroke-opacity="1"
       stroke-linecap="round"
       stroke-linejoin="round"
       d="m 515.78998,397.317 27.612,4.473" />
    <path
       id="STROKE_806d8fb3-c2f1-4faf-a42b-64a8a1ade1ff"
       opacity="1"
       fill="none"
       stroke="#000000"
       stroke-width="1.579"
       stroke-opacity="1"
       stroke-linecap="round"
       stroke-linejoin="round"
       d="m 515.66498,397.52 18.174,-14.695" />
    <path
       id="STROKE_41c13bdf-2d0e-45fc-ba4f-30b22d8f9fc7"
       opacity="1"
       fill="none"
       stroke="#000000"
       stroke-width="2.011"
       stroke-opacity="1"
       stroke-linecap="round"
       stroke-linejoin="round"
       d="m 543.79298,401.753 -9.459,-18.981" />
    <path
       id="STROKE_7aec451e-4356-4b1b-9b2c-54ede44b33ea"
       opacity="1"
       fill="none"
       stroke="#000000"
       stroke-width="1.579"
       stroke-opacity="1"
       stroke-linecap="round"
       stroke-linejoin="round"
       d="m 515.66498,397.52 5.552,-17.629" />
    <path
       id="STROKE_47b9676a-e64d-4058-9d02-c74a7c116492"
       opacity="1"
       fill="none"
       stroke="#000000"
       stroke-width="1.579"
       stroke-opacity="1"
       stroke-linecap="round"
       stroke-linejoin="round"
       d="m 506.87798,379.643 8.787,17.877" />
    <path
       sodipodi:nodetypes="cc"
       id="STROKE_9c06914a-aea2-44c0-bfb9-766ce9e7dc09"
       opacity="1"
       fill="none"
       stroke="#000000"
       stroke-width="1.579"
       stroke-opacity="1"
       stroke-linecap="round"
       stroke-linejoin="round"
       d="m 505.51744,378.41001 15.69954,1.48099" />
    <path
       id="STROKE_5de66cae-c7f0-4e19-a6a7-a9e5805ce0ef"
       opacity="1"
       fill="none"
       stroke="#000000"
       stroke-width="1.579"
       stroke-opacity="1"
       stroke-linecap="round"
       stroke-linejoin="round"
       d="m 521.21698,379.891 6.738,-19.503" />
    <path
       id="STROKE_46d67f88-1126-4f2e-9cf2-09133b7f98f7"
       opacity="1"
       fill="none"
       stroke="#000000"
       stroke-width="1.579"
       stroke-opacity="1"
       stroke-linecap="round"
       stroke-linejoin="round"
       d="m 515.10068,358.62531 12.8543,1.76269"
       sodipodi:nodetypes="cc" />
    <path
       id="STROKE_7b174400-9fba-421d-a116-c8c73d7710a4"
       opacity="1"
       fill="none"
       stroke="#000000"
       stroke-width="1.579"
       stroke-opacity="1"
       stroke-linecap="round"
       stroke-linejoin="round"
       d="m 533.83898,382.825 -5.884,-22.437" />
    <path
       id="STROKE_049fb923-4639-404a-9ec9-0c740c58ec0c"
       opacity="1"
       fill="none"
       stroke="#000000"
       stroke-width="1.579"
       stroke-opacity="1"
       stroke-linecap="round"
       stroke-linejoin="round"
       d="m 521.21698,379.891 12.622,2.934" />
    <path
       id="STROKE_edfaf6ca-95b9-4fde-97bd-c834fdb4c8b7"
       opacity="1"
       fill="none"
       stroke="#000000"
       stroke-width="1.579"
       stroke-opacity="1"
       stroke-linecap="round"
       stroke-linejoin="round"
       d="m 533.83898,382.825 8.621,-19.341" />
    <path
       id="STROKE_059684fc-0b18-4c9c-9588-1a177f8e83fb"
       opacity="1"
       fill="none"
       stroke="#000000"
       stroke-width="1.579"
       stroke-opacity="1"
       stroke-linecap="round"
       stroke-linejoin="round"
       d="m 542.45998,363.484 -14.505,-3.096" />
    <path
       id="STROKE_4ae2410a-9b45-4cb7-991e-00c3fc470790"
       opacity="1"
       fill="none"
       stroke="#000000"
       stroke-width="1.579"
       stroke-opacity="1"
       stroke-linecap="round"
       stroke-linejoin="round"
       d="m 447.73098,453.607 13.761,-29.314" />
    <path
       id="STROKE_61fa207c-4458-4975-b93f-c9fa39bc2cbe"
       opacity="1"
       fill="none"
       stroke="#000000"
       stroke-width="1.579"
       stroke-opacity="1"
       stroke-linecap="round"
       stroke-linejoin="round"
       d="m 494.15998,430.993 4.126,18.816" />
    <path
       id="STROKE_2546514f-48e7-421f-81e5-d1abc4c1a78e"
       opacity="1"
       fill="none"
       stroke="#000000"
       stroke-width="1.579"
       stroke-opacity="1"
       stroke-linecap="round"
       stroke-linejoin="round"
       d="m 498.28598,449.809 -15.04463,4.95968"
       sodipodi:nodetypes="cc" />
    <path
       id="STROKE_fd1a5a9b-e13d-4ab2-a2a3-a47026a8ae10"
       opacity="1"
       fill="none"
       stroke="#000000"
       stroke-width="1.579"
       stroke-opacity="1"
       stroke-linecap="round"
       stroke-linejoin="round"
       d="m 499.67898,411.396 8.497,22.56" />
    <path
       id="STROKE_8d17b012-621a-475f-8dbf-fbefe3299c47"
       opacity="1"
       fill="none"
       stroke="#000000"
       stroke-width="1.579"
       stroke-opacity="1"
       stroke-linecap="round"
       stroke-linejoin="round"
       d="m 508.17598,433.956 -9.777,16.244" />
    <path
       id="STROKE_75876115-ae97-4208-8cd6-153141be1e09"
       opacity="1"
       fill="none"
       stroke="#000000"
       stroke-width="1.579"
       stroke-opacity="1"
       stroke-linecap="round"
       stroke-linejoin="round"
       d="m 494.15998,430.993 14.294,3.347" />
    <path
       id="STROKE_795e5428-8a5b-4a01-a7bf-71f2d8fbee49"
       opacity="1"
       fill="none"
       stroke="#000000"
       stroke-width="1.579"
       stroke-opacity="1"
       stroke-linecap="round"
       stroke-linejoin="round"
       d="m 529.72598,414.948 -21.55,19.008" />
    <path
       id="STROKE_6d15fccf-8f01-4dbc-a247-7ca6053cdbc6"
       opacity="1"
       fill="none"
       stroke="#000000"
       stroke-width="1.579"
       stroke-opacity="1"
       stroke-linecap="round"
       stroke-linejoin="round"
       d="m 499.67898,411.396 29.964,3.773" />
    <path
       id="STROKE_df49e522-25eb-4efb-b4ab-63c56c1fb3fb"
       opacity="1"
       fill="none"
       stroke="#000000"
       stroke-width="1.579"
       stroke-opacity="1"
       stroke-linecap="round"
       stroke-linejoin="round"
       d="m 508.17598,433.956 31.274,-7.735" />
    <path
       id="STROKE_556ec0bc-5441-4554-ae93-a1872084a820"
       opacity="1"
       fill="none"
       stroke="#000000"
       stroke-width="1.579"
       stroke-opacity="1"
       stroke-linecap="round"
       stroke-linejoin="round"
       d="m 539.44998,426.221 -9.475,-10.61" />
    <path
       id="STROKE_9582e6e7-7b25-4938-8c6d-437bbdff4869"
       opacity="1"
       fill="none"
       stroke="#000000"
       stroke-width="1.579"
       stroke-opacity="1"
       stroke-linecap="round"
       stroke-linejoin="round"
       d="m 498.39898,450.2 20.579,5.353" />
    <path
       id="STROKE_e0b502af-ae7b-49b3-883a-5a77f530eea7"
       opacity="1"
       fill="none"
       stroke="#000000"
       stroke-width="1.579"
       stroke-opacity="1"
       stroke-linecap="round"
       stroke-linejoin="round"
       d="m 508.45398,434.34 10.524,21.213" />
    <path
       id="STROKE_6e6af8a9-5a6e-44ed-bb8e-b84df6eadbe8"
       opacity="1"
       fill="none"
       stroke="#000000"
       stroke-width="1.579"
       stroke-opacity="1"
       stroke-linecap="round"
       stroke-linejoin="round"
       d="m 487.97818,470.92983 21.1398,7.44417"
       sodipodi:nodetypes="cc" />
    <path
       id="STROKE_a100cd2b-31cb-4da3-9a35-92811062e1a7"
       opacity="1"
       fill="none"
       stroke="#000000"
       stroke-width="1.579"
       stroke-opacity="1"
       stroke-linecap="round"
       stroke-linejoin="round"
       d="m 498.39898,450.2 10.719,28.174" />
    <path
       id="STROKE_0c660181-7211-4f63-a2c1-acb712ecbc68"
       opacity="1"
       fill="none"
       stroke="#000000"
       stroke-width="1.579"
       stroke-opacity="1"
       stroke-linecap="round"
       stroke-linejoin="round"
       d="m 527.95498,360.388 18.428,-16.38" />
    <path
       id="STROKE_4fccc547-e039-4359-950f-1ffec3941760"
       opacity="1"
       fill="none"
       stroke="#000000"
       stroke-width="1.579"
       stroke-opacity="1"
       stroke-linecap="round"
       stroke-linejoin="round"
       d="m 527.95498,360.388 2.542,-18.475" />
    <path
       id="STROKE_34125eaf-dd69-4836-bfc5-80a5edd5bdf5"
       opacity="1"
       fill="none"
       stroke="#000000"
       stroke-width="1.579"
       stroke-opacity="1"
       stroke-linecap="round"
       stroke-linejoin="round"
       d="m 530.49698,341.913 16.052,2.485" />
    <path
       id="STROKE_ca79f95f-558f-4104-94e5-01607e9d0d85"
       opacity="1"
       fill="none"
       stroke="#000000"
       stroke-width="1.579"
       stroke-opacity="1"
       stroke-linecap="round"
       stroke-linejoin="round"
       d="m 536.16198,331.303 10.221,12.705" />
    <path
       id="STROKE_3b11fa00-8a2c-4656-a609-f576fa752cd3"
       opacity="1"
       fill="none"
       stroke="#000000"
       stroke-width="1.579"
       stroke-opacity="1"
       stroke-linecap="round"
       stroke-linejoin="round"
       d="m 530.49698,341.913 5.665,-10.61" />
    <path
       id="STROKE_da9f2be0-50d8-42e2-8a43-97639dee0731"
       opacity="1"
       fill="none"
       stroke="#000000"
       stroke-width="1.579"
       stroke-opacity="1"
       stroke-linecap="round"
       stroke-linejoin="round"
       d="m 515.83875,326.22295 20.32323,5.08005"
       sodipodi:nodetypes="cc" />
    <path
       id="STROKE_0efbc164-f29b-4b62-b543-829077e986ac"
       opacity="1"
       fill="none"
       stroke="#000000"
       stroke-width="1.579"
       stroke-opacity="1"
       stroke-linecap="round"
       stroke-linejoin="round"
       d="m 516.76793,340.39024 13.72905,1.52276"
       sodipodi:nodetypes="cc" />
    <path
       id="STROKE_14045bdb-fca4-47d3-8cf1-e25a15ebe461"
       opacity="1"
       fill="none"
       stroke="#000000"
       stroke-width="1.579"
       stroke-opacity="1"
       stroke-linecap="round"
       stroke-linejoin="round"
       d="m 536.16198,331.303 8.761,-3.253" />
    <path
       id="STROKE_33d6c74e-ca6a-4988-b8cf-db13637df554"
       opacity="1"
       fill="none"
       stroke="#000000"
       stroke-width="1.579"
       stroke-opacity="1"
       stroke-linecap="round"
       stroke-linejoin="round"
       d="m 549.80298,334.456 -4.88,-6.406" />
    <path
       id="STROKE_2070988b-78ca-4352-89ef-9b14a9a1d1c9"
       opacity="1"
       fill="none"
       stroke="#000000"
       stroke-width="1.579"
       stroke-opacity="1"
       stroke-linecap="round"
       stroke-linejoin="round"
       d="m 546.38298,344.008 3.42,-9.552" />
    <path
       id="STROKE_0aa133ad-8b87-4e82-99c4-fa611a9179bd"
       opacity="1"
       fill="none"
       stroke="#000000"
       stroke-width="1.579"
       stroke-opacity="1"
       stroke-linecap="round"
       stroke-linejoin="round"
       d="M 514.27542,326.40333 532.89598,318.472"
       sodipodi:nodetypes="cc" />
    <path
       id="STROKE_afbb5906-0419-431f-b5d2-12bbe64e13eb"
       opacity="1"
       fill="none"
       stroke="#000000"
       stroke-width="1.579"
       stroke-opacity="1"
       stroke-linecap="round"
       stroke-linejoin="round"
       d="m 532.89598,318.472 3.266,12.831" />
    <path
       id="STROKE_5b58cf62-6aeb-4103-8cda-ca81dbeeb27b"
       opacity="1"
       fill="none"
       stroke="#000000"
       stroke-width="1.579"
       stroke-opacity="1"
       stroke-linecap="round"
       stroke-linejoin="round"
       d="m 532.89598,318.472 8.183,-0.222" />
    <path
       id="STROKE_f8ae0212-ad14-408e-851c-6b59e9a89ba8"
       opacity="1"
       fill="none"
       stroke="#000000"
       stroke-width="1.579"
       stroke-opacity="1"
       stroke-linecap="round"
       stroke-linejoin="round"
       d="m 541.07898,318.25 3.844,9.8" />
    <path
       id="STROKE_c65d5c9e-a449-49ac-bfde-4b7a842d17bd"
       opacity="1"
       fill="none"
       stroke="#000000"
       stroke-width="1.579"
       stroke-opacity="1"
       stroke-linecap="round"
       stroke-linejoin="round"
       d="m 532.89598,318.472 -0.068,-6.384" />
    <path
       id="STROKE_084cdc00-058f-4605-8c5f-337459b61569"
       opacity="1"
       fill="none"
       stroke="#000000"
       stroke-width="1.579"
       stroke-opacity="1"
       stroke-linecap="round"
       stroke-linejoin="round"
       d="m 520.47997,303.29891 11.91901,7.97909"
       sodipodi:nodetypes="cc" />
    <path
       id="STROKE_4d241607-f659-4557-895d-f28cb3ae3343"
       opacity="1"
       fill="none"
       stroke="#000000"
       stroke-width="1.579"
       stroke-opacity="1"
       stroke-linecap="round"
       stroke-linejoin="round"
       d="m 559.17798,318.922 -7.465,-2.403" />
    <path
       id="STROKE_b2603271-1347-4430-9c72-893c1167bb75"
       opacity="1"
       fill="none"
       stroke="#000000"
       stroke-width="1.579"
       stroke-opacity="1"
       stroke-linecap="round"
       stroke-linejoin="round"
       d="m 545.37198,327.6 6.317,-10.409" />
    <path
       id="STROKE_d205b6de-3055-49ca-b4d2-e17ccf54f3af"
       opacity="1"
       fill="none"
       stroke="#000000"
       stroke-width="1.579"
       stroke-opacity="1"
       stroke-linecap="round"
       stroke-linejoin="round"
       d="m 541.03598,318.25 10.161,-0.948" />
    <path
       id="STROKE_73f55bf7-2818-4884-85a8-a0c6c884ff80"
       opacity="1"
       fill="none"
       stroke="#000000"
       stroke-width="1.579"
       stroke-opacity="1"
       stroke-linecap="round"
       stroke-linejoin="round"
       d="m 549.15198,333.783 4.697,1.234" />
    <path
       id="STROKE_7ca0a90a-2f38-421a-9d95-e66922d568b3"
       opacity="1"
       fill="none"
       stroke="#000000"
       stroke-width="1.579"
       stroke-opacity="1"
       stroke-linecap="round"
       stroke-linejoin="round"
       d="m 551.77998,317.234 -5.507,-7.91" />
    <path
       id="STROKE_403f3fe7-8796-44b8-928f-a717a7b503fb"
       opacity="1"
       fill="none"
       stroke="#000000"
       stroke-width="1.579"
       stroke-opacity="1"
       stroke-linecap="round"
       stroke-linejoin="round"
       d="m 532.44698,311.479 4.606,-3.103" />
    <path
       id="STROKE_5c136d2c-8300-4700-b8fa-6f5d1cdc53a7"
       opacity="1"
       fill="none"
       stroke="#000000"
       stroke-width="1.579"
       stroke-opacity="1"
       stroke-linecap="round"
       stroke-linejoin="round"
       d="m 546.24898,309.456 -8.608,-0.921" />
    <path
       id="STROKE_644d1afb-f682-4c26-9c14-2ce89282a820"
       opacity="1"
       fill="none"
       stroke="#000000"
       stroke-width="1.579"
       stroke-opacity="1"
       stroke-linecap="round"
       stroke-linejoin="round"
       d="m 536.98598,308.625 6.789,-8.386" />
    <path
       id="STROKE_166c609f-7eb1-4f6d-abfd-93a64dc3c218"
       opacity="1"
       fill="none"
       stroke="#000000"
       stroke-width="1.579"
       stroke-opacity="1"
       stroke-linecap="round"
       stroke-linejoin="round"
       d="m 527.65898,299.498 6.182,2.404" />
    <path
       id="STROKE_586e35ba-8e62-44a6-a768-7062ff0d4b97"
       opacity="1"
       fill="none"
       stroke="#000000"
       stroke-width="1.579"
       stroke-opacity="1"
       stroke-linecap="round"
       stroke-linejoin="round"
       d="m 537.34698,308.604 -3.216,-6.205" />
    <path
       id="STROKE_1182a4a4-c07f-45f6-a557-e7904db4dbf7"
       opacity="1"
       fill="none"
       stroke="#000000"
       stroke-width="1.579"
       stroke-opacity="1"
       stroke-linecap="round"
       stroke-linejoin="round"
       d="m 545.64198,309.456 6.095,-4.224" />
    <path
       id="STROKE_9acc7b68-a454-4fc1-b9d5-770cdbe48409"
       opacity="1"
       fill="none"
       stroke="#000000"
       stroke-width="1.579"
       stroke-opacity="1"
       stroke-linecap="round"
       stroke-linejoin="round"
       d="m 546.45198,308.985 -2.542,-8.677" />
    <path
       id="STROKE_edd8df3a-60e5-432b-99a1-88748ea7cd4d"
       opacity="1"
       fill="none"
       stroke="#000000"
       stroke-width="1.579"
       stroke-opacity="1"
       stroke-linecap="round"
       stroke-linejoin="round"
       d="m 553.19798,333.534 1.616,-8.989" />
    <path
       id="STROKE_976ef91b-e9c5-442e-9977-ed73ad7b9044"
       opacity="1"
       fill="none"
       stroke="#000000"
       stroke-width="1.579"
       stroke-opacity="1"
       stroke-linecap="round"
       stroke-linejoin="round"
       d="m 551.21598,316.471 3.193,7.174" />
    <path
       id="STROKE_5434cf27-65b5-477d-ac77-3142f360e79a"
       opacity="1"
       fill="none"
       stroke="#000000"
       stroke-width="1.579"
       stroke-opacity="1"
       stroke-linecap="round"
       stroke-linejoin="round"
       d="m 554.36498,323.486 6.182,1.53" />
    <path
       id="STROKE_cd81d543-e1a5-49c7-ac99-f1423b89764c"
       opacity="1"
       fill="none"
       stroke="#000000"
       stroke-width="1.579"
       stroke-opacity="1"
       stroke-linecap="round"
       stroke-linejoin="round"
       d="m 536.58798,308.324 2.652,4.699" />
    <path
       id="STROKE_4a471d40-fb71-4d0e-b6aa-fc01ed93c096"
       opacity="1"
       fill="none"
       stroke="#000000"
       stroke-width="1.579"
       stroke-opacity="1"
       stroke-linecap="round"
       stroke-linejoin="round"
       d="m 539.57298,313.072 6.459,-3.523" />
    <path
       id="STROKE_4033a5a9-7672-4c04-8e4c-0109b701aaee"
       opacity="1"
       fill="none"
       stroke="#000000"
       stroke-width="1.579"
       stroke-opacity="1"
       stroke-linecap="round"
       stroke-linejoin="round"
       d="m 538.94398,313.163 2.198,4.851" />
    <path
       id="STROKE_fc43dd2d-093f-42c4-be11-f7cec470eebe"
       opacity="1"
       fill="none"
       stroke="#000000"
       stroke-width="1.579"
       stroke-opacity="1"
       stroke-linecap="round"
       stroke-linejoin="round"
       d="m 533.26998,317.841 5.587,-4.399" />
    <g
       id="New_Layer_2"
       opacity="1"
       transform="rotate(90,478.41545,398.17694)">
      <path
         id="STROKE_e3385259-98c4-437b-a7e4-6111ac2355e2"
         opacity="1"
         fill="none"
         stroke="#000000"
         stroke-width="7.367"
         stroke-opacity="1"
         stroke-linecap="round"
         stroke-linejoin="round"
         d="m 578.942,368.422 q -1.084,0.309 -1.287,0.336 l -0.262,0.116 -0.985,0.495 -0.49,0.165 -0.547,0.147 q -0.586,0.295 -1.601,0.607 l -0.233,0.13 -1.088,0.308 q -0.627,0.197 -0.923,0.242 -0.296,0.046 -2.51,0.385 -0.497,0.028 -2.393,-0.161 -1.897,-0.19 -2.586,-0.346 -0.69,-0.156 -3.159,-1.222 -1.274,-0.807 -2.894,-1.883 -1.619,-1.077 -2.315,-1.591 -0.696,-0.515 -1.543,-1.121 -3.018,-1.905 -3.627,-2.254 -0.609,-0.348 -1.299,-0.695 -0.69,-0.347 -2.564,-1.129 -1.872,-0.783 -2.266,-0.931 -0.393,-0.149 -0.901,-0.318 -0.507,-0.169 -1.003,-0.34 -0.496,-0.172 -1.479,-0.473 -0.984,-0.302 -1.315,-0.415 -0.331,-0.114 -0.933,-0.276 -0.603,-0.162 -1.942,-0.602 -1.34,-0.441 -2.06,-0.717 -0.72,-0.276 -1.683,-0.719 -0.963,-0.442 -1.91,-0.905 -0.947,-0.463 -1.945,-1.047 -0.999,-0.584 -1.549,-0.899 -0.551,-0.316 -1.454,-0.935 -0.902,-0.619 -1.049,-0.713 -0.148,-0.094 -1.127,-0.794 -0.98,-0.699 -1.651,-1.229 -0.671,-0.53 -2.3,-1.793 -1.629,-1.262 -2.474,-1.912 -0.846,-0.649 -2.062,-1.57 -1.216,-0.92 -1.939,-1.442 -0.724,-0.521 -0.744,-0.544 -0.02,-0.023 -1.225,-0.838 -1.206,-0.816 -3.517,-2.177 -2.311,-1.36 -3.637,-2.015 -1.326,-0.654 -1.681,-0.805 -0.354,-0.151 -0.947,-0.373 -0.593,-0.223 -2.114,-0.758 -1.521,-0.536 -2.681,-0.851 -1.159,-0.316 -1.845,-0.446 -0.685,-0.13 -1.524,-0.276 -0.838,-0.146 -3.302,-0.384 -2.465,-0.238 -3.672,-0.31 -1.206,-0.071 -3.59,-0.197 -2.383,-0.127 -3.315,-0.146 -0.933,-0.019 -2.464,-0.057 -1.532,-0.038 -2.242,-0.047 -0.709,-0.008 -2.726,0.009 -2.017,0.017 -3.353,0.081 -1.336,0.064 -2.451,0.084 -1.116,0.021 -1.807,0.072 -0.69,0.05 -1,0.092 -0.31,0.041 -1.66,0.152 -1.35,0.111 -1.446,0.11 -0.096,-0.002 -1.236,0.109 -1.141,0.11 -1.933,0.206 -0.793,0.095 -1.592,0.179 -0.799,0.083 -1.307,0.167 -0.507,0.083 -2.503,0.225 -1.997,0.141 -2.984,0.18 -0.987,0.038 -2.509,0.106 -1.523,0.067 -2.433,0.115 -0.911,0.048 -2.174,0.086 -1.263,0.037 -1.678,0.043 -0.414,0.006 -2.036,0.046 -1.622,0.04 -4.306,-0.16 l -1.669,-0.303 -0.581,-0.121 q -0.877,-0.287 -1.417,-0.538 -0.54,-0.25 -0.814,-0.456 -0.274,-0.206 -0.613,-0.535 -0.338,-0.33 -0.409,-0.377 -0.071,-0.048 -0.542,-0.655 -0.471,-0.607 -1.139,-1.607 -0.668,-1 -0.991,-1.48 -0.323,-0.48 -0.85,-1.124 -0.527,-0.645 -0.98,-1.092 -0.452,-0.446 -0.484,-0.495 -0.032,-0.048 -0.339,-0.311 -0.306,-0.263 -0.566,-0.417 -0.26,-0.153 -0.517,-0.29 -0.257,-0.138 -0.889,-0.405 -0.612,-0.207 -0.938,-0.324 -0.17,-0.081 -1.905,-1.173 -0.487,-0.523 -1.019,-1.165 -0.533,-0.641 -1.853,-1.988 -0.158,-0.174 -0.877,-0.827 -0.719,-0.653 -1.348,-1.128 -0.629,-0.475 -1.174,-0.778 -0.545,-0.302 -3.052,-1.144 -0.606,-0.122 -1.722,-0.196 -1.572,0.228 -1.966,0.363 -0.395,0.135 -2.157,0.802 -0.452,0.251 -0.862,0.521 -0.411,0.269 -0.902,0.629 -0.491,0.36 -0.7,0.496 -0.209,0.136 -0.45,0.304 -0.24,0.168 -1.393,0.659 -1.154,0.49 -1.429,0.57 -0.275,0.08 -0.638,0.144 -0.364,0.065 -0.923,0.132 -0.559,0.068 -0.993,0.126 -0.435,0.058 -1.169,0.228 -0.733,0.169 -1.375,0.36 -0.643,0.191 -1.671,0.691 -1.028,0.499 -1.083,0.52 -0.055,0.022 -1.025,0.599 -0.629,0.504 -0.925,0.777 -0.296,0.272 -1.478,1.567 -1.182,1.295 -1.448,1.568 -0.265,0.273 -1.061,0.954 -0.453,0.313 -1.337,0.892 -0.883,0.578 -0.969,0.635 -0.086,0.056 -0.399,0.237 -0.313,0.181 -1.12,0.944 -0.346,0.505 -0.99,1.318 l -0.375,0.877 q -0.247,0.523 -0.376,1.174 -0.128,0.65 -0.153,0.992 -0.025,0.341 0.052,0.796 0.076,0.455 0.261,1.113 0.185,0.657 0.505,2.284 0.029,0.739 0.035,0.802 0.007,0.064 -0.202,0.947 -0.209,0.884 -0.41,1.099 -0.2,0.216 -0.507,0.441 -0.307,0.224 -0.913,0.622 -0.605,0.399 -0.971,0.569 -0.367,0.17 -0.806,0.41 -0.439,0.239 -1.239,0.757 -0.8,0.518 -1.78,1.313 -0.261,0.59 -0.278,1.091 -0.016,0.501 0.326,1.114 0.342,0.613 0.708,0.994 0.365,0.381 0.398,0.443 0.032,0.062 0.936,0.671 0.904,0.61 1.548,0.98 0.643,0.37 1.509,0.812 0.865,0.442 2.083,1.165 1.218,0.722 1.594,0.956 0.376,0.234 1.331,0.864 0.956,0.63 2.4,1.66 1.444,1.03 2.188,1.497 0.744,0.467 1.729,1.018 l 0.608,0.274 1.331,0.513 q 0.187,0.12 1.222,0.424 1.035,0.304 1.949,0.543 0.915,0.239 3.001,0.745 0.821,0.155 1.903,0.399 1.454,0.291 2.966,0.533 3.263,0.544 3.779,0.618 0.516,0.073 1.14,0.171 0.625,0.097 2.153,0.211 1.528,0.113 2.834,0.101 1.306,-0.012 1.691,-0.022 0.385,-0.01 1.305,-0.112 0.92,-0.102 1.8,-0.251 0.879,-0.15 1.795,-0.296 0.917,-0.146 1.121,-0.156 0.205,-0.01 0.588,-0.057 0.384,-0.046 0.503,-0.08 0.12,-0.033 0.731,-0.106 0.612,-0.073 1.826,-0.128 1.214,-0.056 1.976,-0.077 0.761,-0.022 1.602,-0.008 0.841,0.014 2.303,0.152 1.462,0.137 3.059,0.349 1.597,0.213 2.676,0.415 1.079,0.202 3.295,0.793 2.216,0.591 3.95,1.195 1.735,0.604 2.92,1.158 1.185,0.554 2.328,1.109 1.144,0.554 1.833,0.903 0.689,0.348 1.251,0.64 0.562,0.291 1.264,0.688 0.702,0.398 1.266,0.751 0.564,0.353 1.321,0.839 0.757,0.487 1.532,1.073 0.775,0.587 1.485,1.176 0.712,0.59 1.651,1.644 0.939,1.054 1.189,1.379 0.251,0.325 0.857,1.128 0.606,0.803 1.333,1.868 0.727,1.065 1.145,1.704 0.418,0.639 0.781,1.304 0.363,0.666 0.703,1.279 0.34,0.614 0.61,1.095 0.269,0.482 0.52,1.085 0.251,0.602 0.79,1.924 0.538,1.322 0.801,2.288 0.264,0.966 0.326,1.076 0.155,0.598 0.347,1.278 0.192,0.681 0.326,1.151 0.135,0.47 0.268,1.046 0.134,0.576 0.566,2.574 0.432,1.998 0.708,3.711 0.276,1.712 0.362,2.35 0.087,0.638 0.192,1.229 0.105,0.591 0.184,1.186 0.08,0.595 0.277,1.899 0.198,1.304 0.225,1.617 0.026,0.313 0.315,2.46 0.289,2.147 0.356,2.86 0.066,0.714 0.156,1.449 0.09,0.735 0.183,1.45 0.092,0.715 0.162,1.346 0.071,0.632 0.229,1.863 0.159,1.231 0.203,1.508 0.044,0.278 0.09,0.733 0.046,0.455 0.092,1.235 0.047,0.779 0.115,1.515 0.068,0.736 0.123,1.221 0.054,0.486 0.179,2.07 0.124,1.584 0.197,2.318 0.074,0.735 0.154,1.355 0.08,0.62 0.378,3.598 -0.036,0.423 0.101,1.634 0.137,1.21 0.572,3.392 0.436,2.181 0.678,3.081 0.242,0.9 0.613,2.178 0.37,1.279 0.875,2.64 0.505,1.362 0.814,2.129 0.309,0.767 0.445,1.108 0.136,0.341 0.422,0.876 0.286,0.535 0.523,1 0.237,0.465 0.394,0.727 0.157,0.262 0.755,1.09 0.599,0.827 1.15,1.385 0.551,0.558 1.063,0.993 0.512,0.436 1.956,1.493 1.443,1.058 1.638,1.211 0.195,0.154 0.693,0.431 0.497,0.277 1.119,0.585 0.621,0.308 1.783,0.807 l 1.541,0.871 q 0.343,0.248 0.797,0.759 0.456,0.511 0.501,0.538 0.045,0.027 0.33,0.347 0.285,0.32 0.801,1.001 0.517,0.682 0.881,1.153 0.363,0.47 1.136,1.531 0.773,1.06 0.91,1.234 0.136,0.174 0.432,0.479 0.296,0.306 0.811,0.862 0.516,0.557 1.228,1.231 0.712,0.675 1.565,1.306 l 2.103,1.271 1.126,0.567 q 1.788,0.684 2.484,0.887 0.696,0.203 1.542,0.432 0.847,0.23 1.881,0.455 1.035,0.224 1.247,0.246 0.212,0.021 1.228,0.172 1.016,0.15 2.083,0.138 1.067,-0.013 1.217,-0.045 0.15,-0.032 0.728,-0.273 0.457,-0.514 0.938,-1.496 0.48,-0.983 0.511,-1.019 0.031,-0.036 0.197,-0.647 0.167,-0.611 0.46,-2.16 0.293,-1.549 0.546,-2.391 0.254,-0.842 0.289,-0.919 0.036,-0.077 0.34,-0.772 0.304,-0.695 0.473,-0.994 0.17,-0.299 0.482,-0.671 0.312,-0.371 0.937,-0.902 0.626,-0.531 1.979,-1.317 1.352,-0.786 1.433,-0.839 0.081,-0.052 1.044,-0.416 0.963,-0.364 1.416,-0.502 0.453,-0.137 1.449,-0.465 0.997,-0.328 1.799,-0.564 0.803,-0.236 1.971,-0.604 1.168,-0.367 2.982,-0.911 2.119,-0.505 3.179,-0.716 1.06,-0.212 1.714,-0.331 0.654,-0.119 1.938,-0.342 1.284,-0.223 2.55,-0.304 1.267,-0.081 2.124,-0.074 0.856,0.007 1.468,0.049 0.611,0.041 2.674,0.499 2.063,0.458 2.973,0.687 0.91,0.229 2.311,0.525 1.4,0.295 2.085,0.45 0.685,0.154 1.757,0.324 1.073,0.171 2.131,0.325 1.058,0.154 2.084,0.267 1.026,0.114 3.042,0.091 2.016,-0.024 2.868,-0.137 0.851,-0.114 1.602,-0.274 0.752,-0.161 1.209,-0.262 0.457,-0.1 2.516,-0.934 0.104,-0.033 0.391,-0.268 0.288,-0.234 1.41,-1.382 0.117,-0.138 0.811,-0.576 0.693,-0.438 1.628,-1.128 0.935,-0.691 1.465,-1.2 0.551,-0.79 0.915,-1.469 0.364,-0.68 0.73,-2.475 0.366,-1.794 0.384,-2.668 0.018,-0.873 -0.013,-1.533 -0.031,-0.66 -0.121,-1.151 -0.09,-0.492 -0.185,-0.826 -0.096,-0.335 -0.411,-1.521 -0.136,-0.597 -0.352,-1.107 -0.216,-0.51 -0.306,-0.703 -0.09,-0.192 -0.302,-0.449 -0.212,-0.256 -0.566,-0.55 -0.355,-0.295 -1.161,-0.589 -0.806,-0.294 -1.318,-0.293 -0.513,0 -0.867,0.131 -0.355,0.13 -0.489,0.191 -0.134,0.062 -0.888,0.349 l -1.453,0.567 -0.71,0.294 q -1.039,0.521 -1.346,0.636 -0.308,0.116 -1.017,0.271 -0.708,0.155 -1.395,0.198 -0.687,0.042 -0.756,0.055 -0.069,0.012 -0.773,-0.073 -0.705,-0.086 -1.072,-0.162 -0.367,-0.077 -1.056,-0.433 -0.689,-0.356 -1.601,-0.905 -0.556,-0.505 -0.714,-0.708 -0.159,-0.204 -0.586,-0.772 -0.427,-0.568 -1.604,-2.311 -1.178,-1.743 -1.778,-2.728 -0.6,-0.986 -0.617,-1.004 -0.017,-0.018 -1.325,-2.021 -1.307,-2.003 -2.124,-3.125 -0.818,-1.122 -1.26,-1.598 -0.442,-0.476 -0.662,-0.728 -0.22,-0.252 -0.496,-0.498 -0.276,-0.245 -0.782,-0.631 -0.506,-0.385 -1.045,-0.803 -0.539,-0.417 -1.101,-0.844 -0.562,-0.427 -1.429,-0.954 -0.867,-0.528 -1.245,-0.749 -0.379,-0.222 -0.955,-0.58 -0.576,-0.359 -1.334,-0.776 -0.759,-0.418 -1.152,-0.583 -0.394,-0.166 -1.001,-0.492 -0.606,-0.326 -1.108,-0.554 -0.503,-0.228 -0.6,-0.244 -0.098,-0.017 -0.459,-0.162 -0.362,-0.146 -0.864,-0.381 -0.502,-0.236 -1.044,-0.407 -0.541,-0.171 -0.881,-0.246 -0.34,-0.075 -1.05,-0.178 -0.709,-0.102 -1.216,-0.139 -0.508,-0.038 -0.984,-0.085 -0.477,-0.047 -0.941,-0.071 -0.464,-0.024 -0.986,-0.037 -0.521,-0.014 -1.087,-0.078 -0.565,-0.064 -0.972,-0.146 -0.406,-0.082 -0.667,-0.161 -0.261,-0.078 -0.879,-0.407 -0.618,-0.328 -1.481,-0.903 -0.195,-0.113 -0.336,-0.525 -0.142,-0.412 -0.244,-0.778 -0.102,-0.366 -0.185,-1.258 -0.084,-0.892 -0.135,-2.008 -0.052,-1.116 -0.022,-2.53 0.029,-1.413 0.117,-2.279 0.087,-0.867 0.202,-1.752 0.116,-0.886 0.317,-1.705 0.201,-0.819 0.717,-2.073 0.515,-1.253 0.544,-1.327 0.03,-0.074 0.348,-0.592 0.318,-0.517 0.495,-0.749 0.176,-0.233 0.851,-0.846 l 0.847,-0.556 q 0.175,-0.205 1.417,-0.752 1.242,-0.547 2.58,-1.077 1.337,-0.529 2.596,-0.94 1.258,-0.41 1.928,-0.636 0.67,-0.227 1.423,-0.441 0.753,-0.215 1.147,-0.315 0.394,-0.099 0.492,-0.11 0.097,-0.011 0.926,-0.245 0.828,-0.234 1.832,-0.555 1.004,-0.321 1.822,-0.58 0.818,-0.258 1.476,-0.437 0.658,-0.179 2.16,-0.429 1.502,-0.25 2.433,-0.358 0.931,-0.107 2.419,-0.256 1.487,-0.149 2.482,-0.22 0.996,-0.07 1.336,-0.084 0.339,-0.013 0.716,-0.06 0.377,-0.047 1.512,-0.168 1.134,-0.121 1.303,-0.155 0.169,-0.033 0.924,-0.169 0.756,-0.137 1.688,-0.448 0.931,-0.311 1.845,-0.761 0.914,-0.449 1.06,-0.515 0.147,-0.066 0.877,-0.547 0.73,-0.481 1.103,-0.787 0.374,-0.307 1.146,-1.111 0.771,-0.805 0.917,-0.98 0.146,-0.175 0.758,-0.798 0.99,-1.127 1.445,-1.993 0.455,-0.865 0.989,-2.515 0.533,-1.649 0.55,-1.768 0.017,-0.118 0.154,-0.737 0.138,-0.619 0.299,-1.362 0.161,-0.743 0.207,-0.93 0.046,-0.187 0.142,-0.74 0.096,-0.553 0.091,-1.034 -0.005,-0.482 -0.055,-0.887 l -0.015,-2.446" />
    </g>
  </g>
</svg>
